<svg width="18" height="17" viewBox="0 0 18 17" fill="none" xmlns="http://www.w3.org/2000/svg">
<path d="M17.9905 8.81558C17.9905 8.81558 17.98 8.77351 17.98 8.75248C17.9905 8.52112 17.9169 8.27925 17.7276 8.11099L9.71428 1.04409C9.38828 0.760157 8.89402 0.791705 8.59956 1.11771C8.31562 1.44371 8.34717 1.93797 8.67317 2.23243L15.2563 8.03738H0.796529C0.365364 8.03738 0.0078125 8.39493 0.0078125 8.8261C0.0078125 9.25726 0.365364 9.61481 0.796529 9.61481H15.2458L8.66266 15.4198C8.33666 15.7037 8.30511 16.2085 8.58905 16.5345C8.74679 16.7133 8.95711 16.7974 9.17795 16.7974C9.36725 16.7974 9.54602 16.7343 9.70376 16.5976L17.7171 9.53068C17.9064 9.36242 17.98 9.12055 17.9695 8.88919C17.9695 8.86816 17.98 8.84713 17.98 8.8261L17.9905 8.81558Z" fill="white"/>
</svg>
