<?xml version="1.0" encoding="UTF-8"?>
<svg id="Layer_2" data-name="Layer 2" xmlns="http://www.w3.org/2000/svg" viewBox="0 0 510.02 104.31">
  <g id="Layer_1-2" data-name="Layer 1">
    <g id="g7">
      <path id="path9" d="M173.43,91.89c-10.89,0-19.61-3.59-26.17-10.77-6.55-7.18-9.83-16.51-9.83-28.01,0-12.35,3.34-22.21,10.02-29.57,6.68-7.35,15.77-11.03,27.26-11.03,10.61,0,19.15,3.57,25.63,10.71,6.48,7.14,9.72,16.48,9.72,28.01,0,12.53-3.32,22.44-9.96,29.72-6.64,7.28-15.53,10.93-26.67,10.93ZM174.07,20.65c-8.07,0-14.62,2.91-19.66,8.73-5.03,5.82-7.55,13.47-7.55,22.93s2.45,17.08,7.37,22.85c4.91,5.77,11.31,8.65,19.2,8.65,8.43,0,15.07-2.75,19.93-8.25,4.85-5.49,7.28-13.19,7.28-23.08s-2.36-17.98-7.07-23.52c-4.71-5.54-11.21-8.31-19.49-8.31Z"/>
      <path id="path11" d="M265.6,90.6h-8.78v-8.68h-.22c-3.64,6.64-9.29,9.96-16.93,9.96-13.07,0-19.61-7.78-19.61-23.35v-32.78h8.73v31.39c0,11.57,4.43,17.36,13.29,17.36,4.29,0,7.81-1.57,10.58-4.74,2.77-3.16,4.15-7.29,4.15-12.4v-31.6h8.78v54.85h0Z"/>
      <path id="path13" d="M306.03,90.06c-2.07,1.15-4.8,1.72-8.2,1.72-9.61,0-14.41-5.36-14.41-16.07v-32.46h-9.43v-7.5h9.43v-13.39l8.78-2.84v16.23h13.82v7.5h-13.82v30.9c0,3.68.62,6.3,1.88,7.87,1.25,1.57,3.32,2.36,6.21,2.36,2.21,0,4.13-.6,5.73-1.82v7.5h0Z"/>
    </g>
    <g id="g23">
      <path id="path25" d="M30.87,40.73c-2.22,0-3.98,1.04-5.29,3.12s-1.96,4.83-1.96,8.26.65,6.23,1.96,8.25c1.3,2.03,3.02,3.03,5.13,3.03s3.91-.98,5.19-2.95c1.28-1.97,1.92-4.7,1.92-8.19s-.62-6.47-1.86-8.5c-1.24-2.02-2.94-3.03-5.09-3.03Z"/>
      <path id="path27" d="M0,11.75v79.83l60.73,12.73V0L0,11.75ZM40.64,65.16c-2.57,3.38-5.91,5.07-10.04,5.07s-7.3-1.64-9.83-4.91c-2.53-3.28-3.8-7.54-3.8-12.8,0-5.55,1.29-10.04,3.86-13.47,2.57-3.43,5.98-5.14,10.23-5.14,4.01,0,7.25,1.64,9.72,4.92,2.48,3.28,3.71,7.61,3.71,12.98,0,5.52-1.28,9.97-3.85,13.35Z"/>
      <path id="path3" d="M64.57,22.12v20.4l7.13,4.49c.19.05.6.06.78,0l30.69-20.69c0-2.45-2.28-4.2-3.57-4.2,0,0-35.03,0-35.03,0Z"/>
      <path id="path5" d="M64.57,50.13l6.51,4.47c.92.67,2.02,0,2.02,0-1.1.67,30.08-20.04,30.08-20.04v37.5c0,4.08-2.61,5.79-5.55,5.79h-33.06v-27.73h0Z"/>
    </g>
    <g id="g29">
      <path id="path31" d="M326.38,90.6h-8.78V9.4h8.78v81.21h0Z"/>
      <path id="path33" d="M364.34,91.89c-8.11,0-14.58-2.56-19.42-7.69-4.84-5.12-7.26-11.92-7.26-20.38,0-9.21,2.52-16.41,7.55-21.59,5.03-5.18,11.84-7.77,20.4-7.77s14.56,2.52,19.15,7.55c4.58,5.03,6.88,12.02,6.88,20.94s-2.47,15.75-7.42,21.02c-4.95,5.27-11.58,7.9-19.9,7.9h0ZM364.98,41.85c-5.64,0-10.1,1.92-13.39,5.76-3.29,3.84-4.93,9.13-4.93,15.88s1.66,11.62,4.98,15.37,7.77,5.63,13.34,5.63,10.05-1.84,13.1-5.52c3.05-3.67,4.58-8.91,4.58-15.69s-1.52-12.14-4.58-15.86c-3.06-3.72-7.42-5.58-13.1-5.58Z"/>
      <path id="path35" d="M425.88,91.89c-8.11,0-14.58-2.56-19.42-7.69-4.84-5.12-7.26-11.92-7.26-20.38,0-9.21,2.52-16.41,7.55-21.59,5.03-5.18,11.84-7.77,20.41-7.77s14.56,2.52,19.15,7.55,6.88,12.02,6.88,20.94-2.47,15.75-7.42,21.02c-4.95,5.27-11.58,7.9-19.9,7.9h0ZM426.52,41.85c-5.64,0-10.11,1.92-13.39,5.76-3.29,3.84-4.93,9.13-4.93,15.88s1.66,11.62,4.98,15.37,7.77,5.63,13.34,5.63,10.04-1.84,13.1-5.52c3.05-3.67,4.58-8.91,4.58-15.69s-1.53-12.14-4.58-15.86c-3.05-3.72-7.42-5.58-13.09-5.58h0Z"/>
      <path id="path37" d="M510.02,90.6h-12.32l-24.21-26.36h-.22v26.36h-8.78V9.4h8.78v51.48h.22l23.03-25.12h11.51l-25.44,26.46,27.43,28.39Z"/>
    </g>
  </g>
</svg>