<svg  viewBox="0 0 29 29" fill="none" xmlns="http://www.w3.org/2000/svg">
<g clip-path="url(#clip0_3323_701)">
<path d="M23.8764 0H4.92365C2.20439 0 0 2.20439 0 4.92365V23.8764C0 26.5956 2.20439 28.8 4.92365 28.8H23.8764C26.5956 28.8 28.8 26.5956 28.8 23.8764V4.92365C28.8 2.20439 26.5956 0 23.8764 0Z" fill="#B4B4B4"/>
<path d="M14.067 7.62036H9.75733L4.80719 20.9398H8.66409L9.3069 18.9503H14.2582L14.901 20.9398H18.8754L14.0681 7.62036H14.067ZM11.7814 15.6268H10.3794L11.7814 11.2849L13.1834 15.6268H11.7814Z" fill="white"/>
<path d="M22.9363 10.4531H19.3674V20.9398H22.9363V10.4531Z" fill="white"/>
<path d="M23.0537 8.5571C23.0641 9.53514 22.2727 10.2263 21.1529 10.2171C20.032 10.2263 19.2417 9.53514 19.2521 8.5571C19.2417 7.57905 20.0332 6.88785 21.1529 6.89706C22.2738 6.88785 23.0641 7.57905 23.0537 8.5571Z" fill="white"/>
</g>
<defs>
<clipPath id="clip0_3323_701">
<rect width="28.8" height="28.8" fill="white"/>
</clipPath>
</defs>
</svg>
