<?xml version="1.0" encoding="UTF-8"?>
<svg id="Layer_2" data-name="Layer 2" xmlns="http://www.w3.org/2000/svg" viewBox="0 0 180.4 62.66">
  <defs>
    <style>
      .cls-1 {
        fill-rule: evenodd;
      }
    </style>
  </defs>
  <g id="Layer_1-2" data-name="Layer 1">
    <g>
      <path class="cls-1" d="M38.4.11L3.8,2.71c-2.8.2-3.8,2.1-3.8,4.3v38c0,1.7.6,3.2,2.1,5.1l8.1,10.6c1.3,1.7,2.6,2.1,5.1,1.9l40.2-2.4c3.4-.2,4.4-1.8,4.4-4.5V12.91c0-1.4-.5-1.8-2.2-3-.1-.1-.2-.1-.3-.2l-11-7.7C43.8.01,42.7-.19,38.4.11h0ZM16.2,12.21c-3.3.2-4,.3-5.9-1.3l-4.7-3.7c-.5-.5-.3-1.1,1-1.2l33.3-2.4c2.8-.2,4.2.7,5.3,1.6l5.7,4.1c.3.1.9.8.1.8l-34.4,2.1h-.4ZM12.4,55.31V19.01c0-1.6.5-2.3,1.9-2.4l39.5-2.3c1.3-.1,1.9.7,1.9,2.3v36c0,1.6-.3,2.9-2.4,3l-37.8,2.2c-2.1.2-3.1-.6-3.1-2.5h0ZM49.7,21.01c.2,1.1,0,2.2-1.1,2.3l-1.8.4v26.8c-1.6.9-3,1.3-4.2,1.3-1.9,0-2.4-.6-3.9-2.4l-12-18.8v18.1l3.8.9s0,2.2-3,2.2l-8.4.5c-.2-.5,0-1.7.8-1.9l2.2-.6v-24l-3-.3c-.2-1.1.4-2.7,2.1-2.8l9-.6,12.4,19v-16.8l-3.2-.4c-.2-1.3.7-2.3,1.9-2.4l8.4-.5Z"/>
      <path d="M86.5,44.41v-16.5h.3l11.9,16.5h3.8v-24.3h-4.2v16.5h-.3l-11.9-16.5h-3.8v24.3h4.2ZM114.2,44.71c5.5,0,8.8-3.6,8.8-9.6s-3.4-9.6-8.8-9.6-8.8,3.6-8.8,9.6c-.1,6,3.3,9.6,8.8,9.6h0ZM114.2,41.21c-2.9,0-4.6-2.2-4.6-6.1s1.7-6.1,4.6-6.1,4.6,2.2,4.6,6.1c-.1,3.9-1.7,6.1-4.6,6.1h0ZM126.8,21.51v4.6h-2.9v3.3h2.9v10c0,3.6,1.7,5,5.9,5,.8,0,1.6-.1,2.2-.2v-3.2c-.5.1-.8.1-1.4.1-1.7,0-2.5-.8-2.5-2.6v-9h3.9v-3.3h-3.9v-4.6h-4.2v-.1ZM137.4,44.41h4.2v-18.4h-4.2v18.4ZM139.5,22.91c1.4,0,2.5-1.1,2.5-2.5s-1.1-2.5-2.5-2.5-2.5,1.1-2.5,2.5,1.1,2.5,2.5,2.5h0ZM153,44.71c5.5,0,8.8-3.6,8.8-9.6s-3.4-9.6-8.8-9.6-8.8,3.6-8.8,9.6c-.1,6,3.3,9.6,8.8,9.6h0ZM153,41.21c-2.9,0-4.6-2.2-4.6-6.1s1.7-6.1,4.6-6.1,4.6,2.2,4.6,6.1c-.1,3.9-1.7,6.1-4.6,6.1h0ZM164.3,44.41h4.2v-10.8c0-2.7,1.6-4.4,4-4.4s3.7,1.4,3.7,4.2v10.9h4.2v-11.9c0-4.4-2.2-6.9-6.3-6.9-2.7,0-4.6,1.3-5.5,3.3h-.3v-2.8h-4v18.4h0Z"/>
    </g>
  </g>
</svg>