<svg  viewBox="0 0 139 18" fill="none" xmlns="http://www.w3.org/2000/svg">
<g clip-path="url(#clip0_3323_697)">
<path fill-rule="evenodd" clip-rule="evenodd" d="M14.2727 0C10.4708 0 8.10244 1.89209 7.14676 5.67627C8.58027 3.78418 10.2423 3.07724 12.1537 3.53467C13.234 3.80497 14.0234 4.59508 14.8752 5.44756C16.2672 6.88222 17.8877 8.5248 21.4195 8.5248C25.2214 8.5248 27.6106 6.63271 28.5663 2.84853C27.1328 4.74062 25.4707 5.44756 23.5802 4.96933C22.4998 4.69904 21.7104 3.90893 20.8586 3.05645C19.4458 1.64258 17.8254 0 14.2727 0ZM7.14676 8.5248C3.32408 8.5248 0.955672 10.4169 0 14.2011C1.43351 12.309 3.09555 11.602 5.00689 12.0595C6.08721 12.3298 6.87668 13.1199 7.72848 13.9724C9.12043 15.407 10.7409 17.0496 14.2727 17.0496C18.0747 17.0496 20.4638 15.1575 21.4195 11.3733C19.986 13.2654 18.324 13.9724 16.4126 13.4941C15.3323 13.2238 14.5428 12.4337 13.691 11.5813C12.2991 10.1674 10.6786 8.5248 7.14676 8.5248Z" fill="#B4B4B4"/>
<path fill-rule="evenodd" clip-rule="evenodd" d="M42.839 7.17332H40.3459V11.9763C40.3459 13.2654 41.1977 13.2446 42.839 13.1615V15.0951C39.4941 15.4902 38.1645 14.5753 38.1645 11.9763V7.17332H36.3155V5.0941H38.1645V2.41191L40.3459 1.76735V5.0941H42.839V7.17332ZM52.3541 5.11489H54.5148V15.1159H52.3541V13.6813C51.5854 14.7417 50.4012 15.3862 48.8431 15.3862C46.1007 15.3862 43.8362 13.0783 43.8362 10.1258C43.8362 7.15253 46.1007 4.86538 48.8431 4.86538C50.4012 4.86538 51.6062 5.50994 52.3541 6.54955V5.11489ZM49.1755 13.307C50.9829 13.307 52.3541 11.9555 52.3541 10.105C52.3541 8.23372 50.9829 6.90302 49.1755 6.90302C47.368 6.90302 45.9968 8.25451 45.9968 10.105C45.9968 11.9555 47.368 13.307 49.1755 13.307ZM58.1297 3.59706C57.361 3.59706 56.7378 2.9525 56.7378 2.22478C56.7378 1.45546 57.361 0.852491 58.1297 0.852491C58.8984 0.852491 59.5217 1.47626 59.5217 2.22478C59.5217 2.97329 58.8984 3.59706 58.1297 3.59706ZM57.0494 15.0951V5.11489H59.21V15.1159H57.0494V15.0951ZM61.7239 15.0951V0.499023H63.8845V15.0951H61.7239ZM77.9911 5.11489H80.2764L77.1185 15.1159H74.9994L72.9011 8.37926L70.782 15.1159H68.6421L65.4842 5.11489H67.7695L69.7224 12.0179L71.8415 5.11489H73.9191L76.0174 12.0179L77.9911 5.11489ZM82.9772 3.59706C82.2085 3.59706 81.5852 2.9525 81.5852 2.22478C81.5852 1.45546 82.2085 0.852491 82.9772 0.852491C83.7459 0.852491 84.3691 1.47626 84.3691 2.22478C84.3691 2.97329 83.7459 3.59706 82.9772 3.59706ZM81.8969 15.0951V5.11489H84.0575V15.1159H81.8969V15.0951ZM91.8691 4.84459C94.1128 4.84459 95.7333 6.36242 95.7333 8.96145V15.0951H93.5727V9.19016C93.5727 7.67233 92.7001 6.86144 91.3289 6.86144C89.8954 6.86144 88.7735 7.69312 88.7735 9.75155V15.1159H86.5921V5.11489H88.7735V6.38321C89.3968 5.34361 90.4979 4.84459 91.8691 4.84459ZM106.017 1.102H108.199V15.0951H106.017V13.6605C105.248 14.7209 104.064 15.3654 102.506 15.3654C99.7845 15.3654 97.4992 13.0575 97.4992 10.105C97.4992 7.13173 99.7637 4.84459 102.506 4.84459C104.064 4.84459 105.269 5.48915 106.017 6.52876V1.102ZM102.839 13.307C104.646 13.307 106.017 11.9555 106.017 10.105C106.017 8.23372 104.646 6.90302 102.839 6.90302C101.031 6.90302 99.6599 8.25451 99.6599 10.105C99.6599 11.9555 101.031 13.307 102.839 13.307ZM115.449 15.3654C112.416 15.3654 110.131 13.0575 110.131 10.105C110.131 7.13173 112.395 4.84459 115.449 4.84459C117.423 4.84459 119.126 5.86341 119.937 7.42282L118.067 8.50402C117.631 7.56837 116.633 6.9654 115.428 6.9654C113.663 6.9654 112.312 8.2961 112.312 10.105C112.312 11.9139 113.663 13.2446 115.428 13.2446C116.633 13.2446 117.61 12.6209 118.108 11.706L119.978 12.7664C119.126 14.3466 117.423 15.3654 115.449 15.3654ZM123.552 7.85946C123.552 9.68917 128.953 8.58719 128.953 12.2882C128.953 14.2842 127.208 15.3654 125.027 15.3654C123.012 15.3654 121.578 14.4714 120.934 13.0159L122.804 11.9347C123.115 12.8288 123.926 13.3694 125.027 13.3694C125.982 13.3694 126.73 13.0575 126.73 12.2466C126.73 10.4585 121.329 11.4773 121.329 7.88025C121.329 6.00896 122.949 4.8238 125.006 4.8238C126.647 4.8238 128.018 5.59311 128.725 6.90302L126.897 7.92184C126.543 7.13173 125.837 6.77827 125.006 6.77827C124.237 6.79906 123.552 7.15253 123.552 7.85946ZM132.818 7.85946C132.818 9.68917 138.219 8.58719 138.219 12.2882C138.219 14.2842 136.474 15.3654 134.293 15.3654C132.277 15.3654 130.844 14.4714 130.2 13.0159L132.07 11.9347C132.381 12.8288 133.191 13.3694 134.293 13.3694C135.248 13.3694 135.996 13.0575 135.996 12.2466C135.996 10.4585 130.595 11.4773 130.595 7.88025C130.595 6.00896 132.215 4.8238 134.272 4.8238C135.913 4.8238 137.284 5.59311 137.991 6.90302L136.162 7.92184C135.809 7.13173 135.103 6.77827 134.272 6.77827C133.503 6.79906 132.818 7.15253 132.818 7.85946Z" fill="#B4B4B4"/>
</g>
<defs>
<clipPath id="clip0_3323_697">
<rect width="138.24" height="17.0496" fill="white"/>
</clipPath>
</defs>
</svg>
