<?xml version="1.0" encoding="UTF-8"?>
<svg id="Layer_2" data-name="Layer 2" xmlns="http://www.w3.org/2000/svg" viewBox="0 0 250.81 52.4">
  <defs>
    <style>
      .cls-1 {
        fill: #757575;
      }
    </style>
  </defs>
  <g id="Layer_1-2" data-name="Layer 1">
    <path class="cls-1" d="M20.7,0C9.4,0,0,9.1,0,20.3s9.4,20.2,20.7,20.2c6.1,0,10.6-2,14.2-5.7,3.7-3.7,4.8-8.8,4.8-12.9,0-1.3-.1-2.5-.3-3.5h-18.7v5.5h13.3c-.4,3.1-1.4,5.4-3,7-1.9,1.9-5,4.1-10.3,4.1-8.2,0-14.6-6.6-14.6-14.7s6.4-14.7,14.6-14.7c4.4,0,7.7,1.7,10,4l3.9-3.9c-3.3-3.2-7.7-5.7-13.9-5.7ZM54.6,14.5c-7.1,0-13,5.5-13,13.2s5.8,13.2,13,13.2,13-5.6,13-13.2-5.9-13.2-13-13.2M54.6,35.7c-3.9,0-7.3-3.3-7.3-8s3.4-8,7.3-8,7.3,3.2,7.3,8c0,4.7-3.4,8-7.3,8M82.8,14.5c-7.2,0-13,5.5-13,13.2s5.8,13.2,13,13.2,13-5.6,13-13.2-5.8-13.2-13-13.2M82.8,35.7c-3.9,0-7.3-3.3-7.3-8s3.4-8,7.3-8,7.3,3.2,7.3,8c0,4.7-3.3,8-7.3,8M110.9,14.5c-6.5,0-12.4,5.7-12.4,13.1s5.9,13,12.4,13c3.1,0,5.5-1.4,6.8-3h.2v1.9c0,5-2.6,7.7-6.9,7.7-3.5,0-5.6-2.5-6.5-4.6l-5,2.1c1.4,3.5,5.2,7.7,11.5,7.7,6.7,0,12.3-4,12.3-13.6V15.4h-5.4v2.1h-.2c-1.3-1.6-3.7-3-6.8-3M111.4,35.5c-3.9,0-7.2-3.3-7.2-7.9s3.3-8,7.2-8,6.9,3.4,6.9,8-3,7.9-6.9,7.9M127.5,1.6h5.7v38.6h-5.7V1.6ZM148.5,14.5c-6.8,0-12.5,5.3-12.5,13.2,0,7.4,5.6,13.2,13.1,13.2,6.1,0,9.6-3.7,11-5.8l-4.5-3c-1.5,2.2-3.6,3.6-6.5,3.6s-5.1-1.3-6.4-4l17.7-7.3-.6-1.5c-1.1-2.9-4.5-8.4-11.3-8.4M141.7,27.3c-.2-5.1,4-7.7,6.9-7.7,2.3,0,4.3,1.1,4.9,2.8l-11.8,4.9Z"/>
    <path class="cls-1" d="M170.4,39.6l13.2-35.1h5.1l13.2,35.1h-5l-3.4-9.5h-14.7l-3.4,9.5h-5ZM180.3,25.9h11.7l-5.7-15.8h-.2l-5.8,15.8Z"/>
    <path class="cls-1" d="M206.5,36.7c-2.2-2.5-3.3-5.5-3.3-9.1s1.1-6.5,3.3-9.1c2.3-2.5,4.9-3.7,8.1-3.7,1.8,0,3.4.4,4.8,1.1,1.5.8,2.6,1.7,3.4,3h.2l-.2-3.3V4.5h4.5v35.1h-4.3v-3.3h-.2c-.8,1.2-1.9,2.2-3.4,3s-3.1,1.1-4.8,1.1c-3.2,0-5.9-1.2-8.1-3.7M220.7,33.9c1.5-1.6,2.2-3.7,2.2-6.3s-.7-4.6-2.2-6.2c-1.4-1.6-3.2-2.4-5.4-2.4s-4,.8-5.4,2.4c-1.5,1.6-2.2,3.7-2.2,6.2s.7,4.6,2.2,6.2,3.3,2.4,5.4,2.4c2.2.1,4-.7,5.4-2.3"/>
    <path class="cls-1" d="M248.1,38.2c-1.8,1.4-4.1,2.2-6.9,2.2-2.4,0-4.5-.6-6.4-1.9-1.8-1.3-3.1-2.9-3.9-5l4-1.7c.6,1.4,1.4,2.6,2.6,3.4,1.1.8,2.4,1.2,3.7,1.2,1.4,0,2.6-.3,3.6-.9s1.4-1.4,1.4-2.2c0-1.5-1.2-2.7-3.5-3.4l-4.1-1c-4.7-1.2-7-3.4-7-6.8,0-2.2.9-3.9,2.7-5.3,1.8-1.3,4.1-2,6.8-2,2.1,0,4,.5,5.8,1.5,1.7,1,2.9,2.4,3.6,4.1l-4,1.7c-.5-1-1.2-1.8-2.2-2.4s-2.2-.9-3.5-.9c-1.2,0-2.2.3-3.2.9-.9.6-1.4,1.3-1.4,2.2,0,1.4,1.3,2.4,3.9,2.9l3.6.9c4.8,1.2,7.1,3.6,7.1,7.2.1,2.1-.9,3.9-2.7,5.3"/>
  </g>
</svg>