<svg  viewBox="0 0 87 18" fill="none" xmlns="http://www.w3.org/2000/svg">
<g clip-path="url(#clip0_3323_686)">
<path d="M57.436 0.00708008H72.4854V2.7848H66.5155V17.398H63.5303V2.7848H57.436V0.00708008Z" fill="#B4B4B4"/>
<path d="M32.6856 0.00708008V2.7848H20.6225V7.2533H30.3236V10.031H20.6225V14.6203H32.6856V17.398H17.6375V2.7848H17.6362V0.00708008H32.6856Z" fill="#B4B4B4"/>
<path d="M40.2001 0.0144043H36.2937L50.2857 17.4054H54.2035L47.2066 8.71586L54.1923 0.0276725L50.2857 0.0337095L45.2508 6.28686L40.2001 0.0144043Z" fill="#B4B4B4"/>
<path d="M44.2087 12.437L42.2525 10.0046L36.2825 17.4187H40.2001L44.2087 12.437Z" fill="#B4B4B4"/>
<path fill-rule="evenodd" clip-rule="evenodd" d="M17.742 17.3982L3.73123 0H0V17.3909H2.98499V3.7173L13.9921 17.3982H17.742Z" fill="#B4B4B4"/>
<path d="M73.1564 17.2918C72.9378 17.2918 72.7518 17.216 72.5961 17.0646C72.4405 16.9131 72.3635 16.7297 72.3655 16.5125C72.3635 16.3013 72.4405 16.1199 72.5961 15.9684C72.7518 15.817 72.9378 15.7412 73.1564 15.7412C73.3667 15.7412 73.5507 15.817 73.7064 15.9684C73.8643 16.1199 73.943 16.3013 73.9452 16.5125C73.943 16.656 73.9066 16.7875 73.8338 16.9051C73.759 17.0247 73.6641 17.1184 73.5446 17.1862C73.4273 17.2559 73.2979 17.2918 73.1564 17.2918Z" fill="#B4B4B4"/>
<path d="M78.2512 9.96558H79.574V15.0617C79.572 15.5301 79.4707 15.9307 79.2727 16.2675C79.0724 16.6043 78.7953 16.8614 78.4394 17.0427C78.0854 17.2221 77.6708 17.3138 77.1995 17.3138C76.7686 17.3138 76.3824 17.2361 76.0386 17.0846C75.6947 16.9331 75.4217 16.7059 75.2215 16.407C75.0191 16.108 74.92 15.7353 74.92 15.2889H76.2449C76.2469 15.4842 76.2914 15.6536 76.3763 15.7951C76.4612 15.9366 76.5785 16.0442 76.7282 16.12C76.8798 16.1957 77.0539 16.2336 77.2499 16.2336C77.4624 16.2336 77.6444 16.1897 77.792 16.1C77.9396 16.0123 78.053 15.8808 78.1319 15.7054C78.2087 15.5321 78.2492 15.3168 78.2512 15.0617V9.96558Z" fill="#B4B4B4"/>
<path d="M85.0165 11.9586C84.9843 11.6497 84.8426 11.4085 84.5959 11.2371C84.347 11.0637 84.0255 10.978 83.631 10.978C83.3541 10.978 83.1155 11.0199 82.9173 11.1016C82.719 11.1853 82.5653 11.2969 82.46 11.4384C82.355 11.5799 82.3024 11.7414 82.2982 11.9227C82.2982 12.0742 82.3346 12.2057 82.4054 12.3153C82.4763 12.4269 82.5712 12.5206 82.6947 12.5964C82.8159 12.6741 82.9515 12.7378 83.0993 12.7897C83.2488 12.8415 83.3986 12.8853 83.5482 12.9212L84.2378 13.0906C84.515 13.1544 84.7841 13.2401 85.0409 13.3497C85.2976 13.4573 85.5303 13.5949 85.7345 13.7603C85.9388 13.9257 86.1007 14.125 86.22 14.3582C86.3393 14.5913 86.4 14.8644 86.4 15.1793C86.4 15.6038 86.2908 15.9765 86.0702 16.2993C85.8498 16.6202 85.5323 16.8713 85.1156 17.0527C84.701 17.2321 84.1994 17.3238 83.6089 17.3238C83.0385 17.3238 82.541 17.2361 82.1223 17.0607C81.7017 16.8873 81.3739 16.6322 81.1373 16.2974C80.9007 15.9625 80.7733 15.554 80.7551 15.0737H82.0658C82.084 15.3248 82.1649 15.534 82.3024 15.7035C82.4418 15.8709 82.6239 15.9944 82.8464 16.0781C83.071 16.1598 83.3216 16.2017 83.5988 16.2017C83.8881 16.2017 84.1429 16.1578 84.3633 16.0721C84.5817 15.9864 84.7536 15.8669 84.877 15.7114C85.0025 15.558 85.0652 15.3766 85.0672 15.1693C85.0652 14.98 85.0084 14.8225 84.8992 14.699C84.788 14.5754 84.6343 14.4718 84.438 14.3881C84.24 14.3044 84.0093 14.2286 83.7464 14.1629L82.9091 13.9516C82.3043 13.7981 81.825 13.565 81.475 13.2521C81.1233 12.9392 80.9491 12.5246 80.9491 12.0044C80.9491 11.5779 81.0665 11.2033 81.3033 10.8824C81.5377 10.5615 81.8594 10.3124 82.266 10.135C82.6745 9.95564 83.1357 9.86792 83.6492 9.86792C84.1712 9.86792 84.6282 9.95564 85.0227 10.135C85.4169 10.3124 85.7266 10.5595 85.9509 10.8744C86.1755 11.1893 86.2928 11.55 86.2989 11.9586H85.0165Z" fill="#B4B4B4"/>
</g>
<defs>
<clipPath id="clip0_3323_686">
<rect width="86.4" height="17.5431" fill="white"/>
</clipPath>
</defs>
</svg>
