<?xml version="1.0" encoding="UTF-8"?>
<svg id="Layer_2" data-name="Layer 2" xmlns="http://www.w3.org/2000/svg" viewBox="0 0 199.51 64">
  <g id="Layer_1-2" data-name="Layer 1">
    <path d="M198.2,43.7c-.3,0-.6.2-.8.7-2,5.8-4.8,9.3-7.1,9.3-1.3,0-1.8-1.5-1.8-3.7,0-5.7,3.4-17.8,5.1-23.4.2-.7.3-1.3.3-1.8,0-1.6-.9-2.4-3.1-2.4s-4.9.9-7.3,5.2c-.8-3.8-3.4-5.4-7-5.4-4.1,0-8.1,2.7-11.4,7-3.3,4.3-7.2,5.7-10.1,5,2.1-5.1,2.9-9,2.9-11.8,0-4.5-2.2-7.2-5.8-7.2-5.4,0-8.5,5.2-8.5,10.6,0,4.2,1.9,8.5,6.1,10.6-3.5,7.9-8.6,15.1-10.6,15.1-2.5,0-3.3-12.3-3.1-21.1.1-5,.5-5.3.5-6.8,0-.9-.6-1.5-2.9-1.5-5.3,0-7,4.5-7.2,9.7-.1,2-.4,3.9-.9,5.8-2.2,7.9-6.8,14-9.8,14-1.4,0-1.8-1.4-1.8-3.2,0-5.7,3.2-12.9,3.2-19,0-4.5-2-7.3-5.7-7.3-4.4,0-10.1,5.2-15.6,14.9,1.8-7.4,2.5-14.6-2.8-14.6-1.2,0-2.3.3-3.3.9-.7.3-1.1,1-1.1,1.8.5,7.9-6.4,28.2-12.9,28.2-1.2,0-1.8-1.3-1.8-3.4,0-5.7,3.4-17.8,5.1-23.4.2-.7.3-1.3.3-1.9,0-1.5-.9-2.3-3.1-2.3s-4.9.9-7.3,5.2c-.9-3.8-3.4-5.4-7-5.4-5.9,0-12.4,6.2-15.3,14.3-3.9,10.8-11.6,21.3-22.1,21.3-9.5,0-14.5-7.9-14.5-20.4,0-18.1,13.3-32.8,23.1-32.8,4.7,0,6.9,3,6.9,7.6,0,5.6-3.1,8.1-3.1,10.3,0,.6.5,1.3,1.6,1.3,4.3,0,9.3-5,9.3-11.9S42.4,0,32.6,0C16.3,0,0,16.3,0,37.3c0,16.7,8.2,26.7,22.4,26.7,9.7,0,18.2-7.5,22.7-16.3.5,7.3,3.8,11.1,8.9,11.1,4.5,0,8.1-2.7,10.9-7.4,1.1,4.9,3.9,7.3,7.6,7.3,4.2,0,7.8-2.7,11.1-7.6,0,3.9.8,7.6,4.2,7.6,1.6,0,3.5-.4,3.8-1.8,3.6-14.7,12.4-26.8,15.1-26.8.8,0,1,.8,1,1.7,0,4-2.8,12.2-2.8,17.4,0,5.7,2.4,9.4,7.4,9.4,5.5,0,11.1-6.7,14.8-16.6,1.2,9.2,3.7,16.6,7.6,16.6,4.8,0,13.5-10.2,18.7-21,2,.3,5.1.2,8.1-1.9-1.3,3.2-2,6.7-2,10.1,0,10,4.8,12.8,8.9,12.8,4.5,0,8.1-2.7,10.9-7.4.9,4.2,3.3,7.3,7.6,7.3,6.7,0,12.6-6.9,12.6-12.6.1-1.2-.6-2.2-1.3-2.2ZM58.2,53.2c-2.7,0-3.8-2.7-3.8-6.8,0-7.1,4.9-19,10-19,2.2,0,3.1,2.6,3.1,5.9,0,7.2-4.6,19.9-9.3,19.9ZM151.5,32c-1.6-1.9-2.2-4.6-2.2-6.9,0-2.9,1.1-5.3,2.3-5.3s1.7,1.2,1.7,3c-.1,2.8-1.1,7.1-1.8,9.2ZM172.6,53.2c-2.7,0-3.8-3.2-3.8-6.8,0-6.9,4.9-19,10-19,2.2,0,3,2.6,3,5.9.1,7.2-4.4,19.9-9.2,19.9Z"/>
  </g>
</svg>