<?xml version="1.0" encoding="UTF-8"?>
<svg id="Layer_2" data-name="Layer 2" xmlns="http://www.w3.org/2000/svg" viewBox="0 0 439.22 83.86">
  <g id="Layer_1-2" data-name="Layer 1">
    <path d="M41.93,17.63L2.62,35.44c-3.18-4.15-3.5-9.69-.75-14.17,1.83-2.93,4.39-5.09,7.62-6.55L41.91,0l32.69,14.85c2.85,1.43,5.19,3.21,6.94,5.82,3.15,4.52,2.98,10.48-.38,14.77l-39.23-17.81Z"/>
    <path d="M41.93,41.84L2.62,59.65c-3.28-4.23-3.5-10-.56-14.49,1.7-2.62,3.98-4.47,6.79-5.95l33.05-15,32.84,14.91c2.79,1.41,5.04,3.2,6.78,5.73,3.15,4.52,3,10.49-.35,14.79l-39.24-17.8Z"/>
    <path d="M41.94,66.05L2.64,83.86c-3.43-4.4-3.49-10.41-.27-14.93,1.86-2.6,4.23-4.43,7.18-5.81l32.36-14.69,33.29,15.12c2.73,1.54,4.97,3.31,6.58,5.93,2.89,4.47,2.65,10.21-.62,14.38l-39.22-17.81Z"/>
    <polygon points="237.13 31.76 244.83 31.77 235.98 59.47 229.07 59.45 224 42.95 218.93 59.44 212 59.46 203.16 31.77 210.84 31.74 215.55 48.53 220.58 31.76 227.4 31.75 232.42 48.57 237.13 31.76"/>
    <path d="M355.49,54.67c-3.02,4.21-7.74,6.11-12.69,5.48-2.8-.36-5.07-1.56-6.94-3.72l-.11,3.1h-7.22s0-38.82,0-38.82l7.25-.03.02,14.15c1.22-1.18,2.26-2.22,3.75-2.84,5.99-2.47,12.75-.38,16.31,5.09s3.39,12.35-.36,17.59ZM349.1,50.98c2.84-3.09,2.68-7.97-.15-10.89s-8.01-3.03-10.96-.07-2.99,8.21.03,11.22,8.14,2.94,11.08-.26Z"/>
    <path d="M293.02,70.54h-7.26s0-38.76,0-38.76l7.24-.04.12,2.93c5.27-5.6,14.28-4.63,19.06,1.24s4.52,13.85,0,19.46c-3.05,3.66-7.41,5.39-12.1,4.79-2.78-.36-5.09-1.49-7.04-3.74l-.02,14.12ZM300.47,53.4c4.63.1,7.92-3.44,7.87-7.88s-3.18-7.57-7.52-7.68-7.8,3.21-7.84,7.68,2.94,7.78,7.48,7.88Z"/>
    <path d="M376.01,60.27c-8.17-.01-14.47-6.29-14.68-14.26-.23-8.69,6.86-15.5,15.54-15.02,7.87.43,13.9,6.64,13.95,14.53s-6.39,14.76-14.8,14.75ZM383.55,45.16c-.23-4.19-3.37-7.09-7.43-7.14s-7.15,2.81-7.53,6.77c-.44,4.63,2.83,8.41,7.39,8.45,4.31.04,7.82-3.42,7.57-8.08Z"/>
    <path d="M190.59,60.27c-8.45.25-15.08-6.24-15.16-14.5s6.8-15.11,15.29-14.78,14.27,6.71,14.2,14.78-6.21,14.26-14.33,14.5ZM197.66,45.16c-.22-4.08-3.24-6.96-7.18-7.13s-7.38,2.71-7.77,6.76c-.44,4.62,2.83,8.42,7.38,8.45s7.82-3.41,7.57-8.08Z"/>
    <path d="M138.55,60.27c-8.5.01-14.91-6.71-14.73-15s6.54-14.24,14.6-14.3,14.95,6.47,14.87,14.79-6.47,14.49-14.75,14.51ZM146.05,45.21c-.22-4.26-3.48-7.24-7.62-7.19-3.85.04-6.8,2.73-7.3,6.5-.6,4.55,2.53,8.48,6.96,8.71s8.21-3.27,7.97-8.01Z"/>
    <path d="M282.23,31.75v27.71s-7.24,0-7.24,0l-.1-2.78c-3.9,4.94-12.56,4.76-16.3-.14-1.44-1.88-2.34-4.24-2.35-6.71l-.04-18.07h7.25s.05,17,.05,17c0,2.91,2.5,4.72,5.14,4.82,3.48.14,5.9-2,6.31-5.49l.02-16.31,7.25-.02Z"/>
    <path d="M433.9,59.17c-6.08,2.46-14.7,1.06-17.63-5.53l6.32-3.54c1.16,3.51,4.95,4.41,8.36,3.02.44-.54.81-1.14.86-1.72.04-.51-.57-1.44-1.14-1.63l-4.13-1.4c-1.88-.64-3.8-1.15-5.48-2.14-2.31-1.34-3.56-3.55-3.61-6.2-.06-3.21,1.51-6.03,4.4-7.56,3.42-1.81,7.49-1.92,11.13-.58,2.44,1.04,4.42,2.65,5.69,5.04l-6.16,3.35c-1.23-2.59-4.26-3.66-6.78-2.21-.47.27-.88,1.13-.86,1.59.15,3.92,13.75,1.72,14.35,11.14.24,3.76-1.76,6.96-5.3,8.39Z"/>
    <path d="M410.54,59.08c-6.06,2.6-14.81,1.2-17.85-5.43l6.29-3.53c1.3,3.43,4.75,4.28,8.13,3.12.57-.44,1.07-1.04,1.13-1.65s-.46-1.58-1.12-1.81l-4.09-1.43c-1.94-.68-3.91-1.18-5.66-2.22-2.23-1.33-3.44-3.54-3.49-6.12-.07-3.38,1.67-6.28,4.74-7.75,3.23-1.54,6.89-1.68,10.3-.58,2.65.96,4.8,2.71,6.19,5.21l-6.2,3.36c-1.17-2.64-4.36-3.71-6.85-2.14-.4.25-.77,1.12-.77,1.53,0,.46.48,1.36,1,1.54l3.75,1.31c1.84.64,3.75,1.07,5.45,1.94,2.53,1.3,3.99,3.55,4.17,6.35.23,3.67-1.66,6.8-5.11,8.29Z"/>
    <path d="M115.4,38.71v20.75s-7.26,0-7.26,0v-20.71s-3.96-.05-3.96-.05v-6.9s3.92-.07,3.92-.07c.09-1.76.21-3.24.65-4.78,1.6-5.63,6.95-7.45,12.52-7.04v6.95c-1.73-.14-3.4-.02-4.61,1.04-1.05.91-1.31,2.38-1.27,3.86h5.87s0,6.95,0,6.95h-5.88Z"/>
    <polygon points="162.59 59.41 155.33 59.47 155.33 19.03 162.59 19.01 162.59 59.41"/>
    <polygon points="173.33 59.41 166.12 59.47 166.12 19.03 173.33 19.02 173.33 59.41"/>
  </g>
</svg>