<svg  viewBox="0 0 106 18" fill="none" xmlns="http://www.w3.org/2000/svg">
<g clip-path="url(#clip0_3323_663)">
<path fill-rule="evenodd" clip-rule="evenodd" d="M28.231 0L19.2119 17.6H10.7578L14.5176 10.2993H14.3437C11.2576 14.3407 6.60679 16.9916 0 17.6V10.4079C0 10.4079 4.23791 10.1689 6.71546 7.53975H0V0H7.54131V6.21432H7.71517L10.8012 0H16.517V6.17086H16.6908L19.8638 0H28.231Z" fill="#B4B4B4"/>
<path d="M77.3255 15.6659H79.7596V1.71631H77.3255V15.6659Z" fill="#B4B4B4"/>
<path fill-rule="evenodd" clip-rule="evenodd" d="M63.9381 15.5138C64.4597 15.7311 65.003 15.8398 65.5464 15.8398C66.4591 15.8398 67.2633 15.6225 67.9587 15.1879C68.6759 14.7533 69.2192 14.1449 69.6104 13.3627C70.0016 12.5805 70.1972 11.7114 70.1972 10.7119C70.1972 9.71236 70.0016 8.84322 69.5887 8.061C69.1757 7.27878 68.6324 6.69211 67.9152 6.25754C67.1981 5.82297 66.3722 5.60569 65.4594 5.62742C64.8726 5.62742 64.3293 5.73606 63.786 5.97507C63.2427 6.19236 62.808 6.51828 62.4603 6.93112C62.4386 6.95285 62.4168 6.99631 62.3734 7.01804V1.71631H59.9393V15.6442H62.3516V14.3405C62.4168 14.4274 62.482 14.4926 62.5472 14.5578C62.9384 14.9706 63.3948 15.2966 63.9381 15.5138ZM66.4157 13.2541C66.0245 13.4931 65.5681 13.6235 65.0465 13.6235C64.5466 13.6235 64.0685 13.4931 63.6556 13.2541C63.2427 12.9933 62.8949 12.6457 62.6559 12.2111C62.4168 11.7766 62.2864 11.2768 62.2864 10.7119C62.2864 10.1469 62.3951 9.64717 62.6342 9.2126C62.8732 8.77804 63.2209 8.43038 63.6339 8.16964C64.0468 7.93063 64.5249 7.80026 65.0248 7.80026C65.5246 7.80026 65.981 7.9089 66.3939 8.14791C66.8069 8.38693 67.1111 8.73458 67.3284 9.16915C67.5458 9.60372 67.6544 10.1035 67.6544 10.6901C67.6544 11.2551 67.5458 11.7548 67.3284 12.2111C67.1328 12.6674 66.8286 13.0151 66.4157 13.2541Z" fill="#B4B4B4"/>
<path d="M31.7517 2.56396H34.5335L37.0111 11.6247L39.6625 2.56396H41.9662L44.8349 11.4509L47.2255 2.56396H49.7683L46.0085 15.6662H43.6179L40.7056 6.97483L38.0325 15.6662H35.6202L31.7517 2.56396Z" fill="#B4B4B4"/>
<path fill-rule="evenodd" clip-rule="evenodd" d="M53.854 15.8835C52.876 15.8835 52.0067 15.6662 51.246 15.2534C50.4637 14.8188 49.8769 14.2104 49.4205 13.4282C48.9858 12.646 48.7685 11.7551 48.7685 10.7773C48.7685 9.79954 48.9858 8.9304 49.4422 8.14818C49.8986 7.36596 50.5071 6.75756 51.2678 6.32299C52.0502 5.88843 52.8977 5.67114 53.854 5.67114C54.9189 5.67114 55.8534 5.91015 56.6575 6.38818C57.4616 6.8662 58.0702 7.53978 58.4614 8.40892C58.8743 9.27806 59.0047 10.2776 58.896 11.3857H51.2678C51.2895 11.842 51.3982 12.2331 51.5938 12.6025C51.8111 13.0153 52.1371 13.3195 52.5283 13.5368C52.9412 13.7541 53.3759 13.8845 53.8757 13.8845C54.2452 13.8845 54.6146 13.8193 54.9406 13.6889C55.2666 13.5586 55.5492 13.3847 55.7665 13.1674C56.0055 12.9502 56.1577 12.6894 56.2663 12.4287H58.8091C58.657 13.1023 58.3527 13.7106 57.8746 14.2539C57.4182 14.7753 56.8314 15.1882 56.1359 15.4924C55.4622 15.7531 54.7016 15.9052 53.854 15.8835ZM51.6155 8.90867C51.4634 9.14769 51.3764 9.43016 51.3112 9.71262H56.375C56.3315 9.34324 56.2229 9.01732 56.049 8.73485C55.8317 8.38719 55.5491 8.10472 55.1797 7.9309C54.8102 7.73534 54.3973 7.6267 53.9409 7.6267C53.4411 7.6267 53.0064 7.73534 52.5935 7.97435C52.1806 8.19164 51.8546 8.49583 51.6155 8.90867Z" fill="#B4B4B4"/>
<path d="M72.0009 5.8447C72.0009 5.04075 72.1748 4.34544 72.5442 3.73705C72.9137 3.10693 73.4136 2.6289 74.0655 2.28125C74.7175 1.93359 75.4999 1.75977 76.3692 1.73804V3.91088C75.9563 3.91088 75.6086 3.99779 75.3261 4.17162C75.0435 4.32372 74.8262 4.56273 74.6741 4.86693C74.5219 5.1494 74.4567 5.47532 74.435 5.8447H76.3258V7.9089H74.435V15.6659H72.0009V7.9089H70.4362V5.8447H72.0009Z" fill="#B4B4B4"/>
<path fill-rule="evenodd" clip-rule="evenodd" d="M85.9318 15.8618C84.932 15.8618 84.0627 15.6445 83.2803 15.2099C82.498 14.7753 81.8894 14.1669 81.4548 13.3847C81.0201 12.6025 80.8028 11.7334 80.8028 10.7339C80.8028 9.73435 81.0201 8.86522 81.4548 8.08299C81.8894 7.30077 82.5197 6.69238 83.2803 6.25781C84.0627 5.82324 84.9538 5.60596 85.9318 5.60596C86.9315 5.60596 87.8225 5.82324 88.6049 6.25781C89.3873 6.69238 90.0175 7.30077 90.4522 8.08299C90.8869 8.86522 91.1042 9.75608 91.1259 10.7339C91.1259 11.7116 90.8869 12.6025 90.4522 13.3847C90.0175 14.1669 89.409 14.7536 88.6266 15.2099C87.8225 15.6445 86.9315 15.8618 85.9318 15.8618ZM85.9318 13.6455C86.4533 13.6455 86.9097 13.5368 87.3227 13.2978C87.7356 13.0588 88.0398 12.7111 88.2572 12.2766C88.4745 11.842 88.5832 11.3423 88.5832 10.7773C88.5832 10.2124 88.4745 9.71262 88.2572 9.25633C88.0398 8.82176 87.7356 8.47411 87.3227 8.23509C86.9097 7.99608 86.4533 7.86571 85.9318 7.86571C85.4102 7.86571 84.9538 7.99608 84.5626 8.23509C84.1714 8.47411 83.8671 8.80003 83.6281 9.25633C83.4107 9.6909 83.3021 10.1906 83.3021 10.7773C83.3021 11.3423 83.4107 11.842 83.6281 12.2766C83.8454 12.7111 84.1714 13.0588 84.5626 13.2978C84.9538 13.5151 85.4102 13.6455 85.9318 13.6455Z" fill="#B4B4B4"/>
<path d="M93.7338 5.84497H91.0172L93.9511 15.6445H96.32L98.2543 9.3867L100.341 15.6445H102.666L105.6 5.84497H103.144L101.492 11.9507L99.6452 5.84497H97.2763L95.4507 12.081L93.7338 5.84497Z" fill="#B4B4B4"/>
</g>
<defs>
<clipPath id="clip0_3323_663">
<rect width="105.6" height="17.6" fill="white"/>
</clipPath>
</defs>
</svg>
