<?xml version="1.0" encoding="UTF-8"?>
<svg id="Layer_2" data-name="Layer 2" xmlns="http://www.w3.org/2000/svg" viewBox="0 0 923.08 168.01">
  <defs>
    <style>
      .cls-1 {
        fill-rule: evenodd;
      }
    </style>
  </defs>
  <g id="Layer_1-2" data-name="Layer 1">
    <g>
      <g>
        <path d="M19.14,132.79c-6.92.02-13.32-3.7-16.74-9.72-3.37-5.98-3.17-13.34.53-19.12l34.48-54.14c3.59-5.92,10.09-9.46,17.02-9.25,6.92.17,13.21,4.05,16.47,10.15,3.21,6.08,2.81,13.39-1.04,19.09l-34.46,54.14c-3.55,5.53-9.69,8.87-16.26,8.84Z"/>
        <path d="M78.28,132.79c-6.95,0-13.35-3.72-16.71-9.69-3.37-5.97-3.16-13.3.53-19.07l34.41-54.02c3.54-6.01,10.06-9.63,17.03-9.45,7.01.15,13.37,4.08,16.58,10.21,3.19,6.14,2.72,13.49-1.24,19.18l-34.41,54.02c-3.54,5.51-9.65,8.83-16.19,8.82Z"/>
        <ellipse cx="136.09" cy="115.87" rx="17.75" ry="17.38" fill="#000"/>
      </g>
      <path d="M907.23,99.5c5.36,0,8.57,3.81,8.57,10.06v21.4h7.28v-21.89c0-10.62-5-16.78-14.41-16.78-3.68,0-9.53,1.01-13.01,7.78-1.65-4.07-5.4-6.9-9.77-7.38-1.35-.25-2.72-.33-4.09-.24-2.99.24-8.33,2.1-10.32,6.33v-5.68h-7.29v37.86h7.29v-20.43c0-7.95,5.2-11.03,10.41-11.03,4.88,0,8.09,3.73,8.09,9.98v21.48h7.25v-20.43c0-6.33,3.8-11.1,10.01-11.03h0ZM837.43,124.63c3.33.07,6.55-1.26,8.88-3.67,2.34-2.41,3.58-5.69,3.46-9.06,0-7.63-5.61-12.41-12.33-12.41s-12.33,4.78-12.33,12.41c-.13,3.36,1.11,6.63,3.43,9.04,2.32,2.41,5.52,3.75,8.84,3.69h.06ZM837.43,131.73c-10.65,0-19.54-7.87-19.54-19.87s8.89-19.62,19.54-19.62,19.61,7.62,19.61,19.62-9.01,19.91-19.66,19.91l.05-.04ZM780.38,111.86l-.07.04c0-12,9.12-19.62,19.85-19.66,5.45-.11,10.69,2.1,14.41,6.08l-5.52,4.7c-2.37-2.33-5.57-3.61-8.89-3.56-6.72,0-12.56,4.78-12.56,12.4,0,5.15,3.06,9.79,7.76,11.76s10.1.88,13.7-2.76l5.6,4.7c-3.74,4.02-9.01,6.26-14.49,6.17-10.64,0-19.77-7.87-19.77-19.87ZM757.05,123.69c-.03-2.78,2.2-5.07,4.98-5.1,0,0,0,0,0,0,2.78.03,5.01,2.31,4.98,5.1h0c-.14,2.66-2.32,4.76-4.98,4.79-2.66-.03-4.85-2.12-4.98-4.78Z"/>
      <path class="cls-1" d="M776.98,44.97h-25.94l-18.18,46.87-18.09-46.87h-25.94l31.53,74.07-19.61,48.97h25.75l50.48-123.04ZM619.23,86.17c0,11.83,10.34,19.62,20.5,19.62s19.8-7.25,19.8-19.63-9.81-19.64-19.8-19.64-20.5,7.79-20.5,19.64h0ZM659.53,127.53v-9.37c-5.26,7.96-17.53,10.97-23.83,10.97-20.85,0-41.7-16.44-41.7-42.97s20.85-42.96,41.7-42.96c5.25,0,17.52,1.75,23.83,10.96v-9.16h24.18v82.54h-24.18ZM587.12,127.53h-24.18v-10.26c-4.04,7.6-13.84,12.02-24,12.02-21.03,0-39.61-16.79-39.61-42.8s18.58-43.31,39.61-43.31c10.15,0,19.98,4.24,24,11.84V0h24.18v127.53ZM562.41,85.98c0-12.37-8.93-19.63-18.92-19.63s-18.93,7.78-18.93,19.63,8.59,19.97,18.93,19.97c10.18.01,18.93-8.12,18.93-19.97h0ZM439.55,83.84c0-12.55,6.49-16.79,15.07-16.79s14.19,5.48,14.19,16.44v44.03h24.35v-49.32c0-23.51-11.57-35-29.97-35-9.63,0-19.27,5.48-23.65,13.79v-12.01h-24.34v82.54h24.35v-43.67ZM365.75,128.93c-23.13,0-42.42-16.97-42.42-42.96s19.27-42.81,42.42-42.81,42.59,16.8,42.59,42.81-19.46,42.97-42.59,42.97h0ZM365.75,104.9c10.15,0,18.58-7.44,18.58-18.92s-8.41-18.74-18.58-18.74c-4.94-.08-9.7,1.88-13.16,5.41-3.48,3.55-5.37,8.36-5.24,13.33,0,11.5,8.42,18.92,18.4,18.92ZM279.67,67.06c7.18,0,13.49,5.66,13.49,16.44v44.03h24.18v-46.88c0-24.92-12.12-37.47-31.54-37.47-5.77,0-16.64,1.75-24.53,14.67-4.56-9.55-13.32-14.5-26.26-14.5-9.18-.05-17.54,5.28-21.37,13.62v-11.98h-24.37v82.54h24.35v-43.68c0-12.55,6.84-16.79,14.19-16.79s13.31,5.48,13.49,15.91v44.56h24.35v-43.68c0-12,6.31-16.78,14.02-16.78h0Z"/>
    </g>
  </g>
</svg>