<svg viewBox="0 0 93 26" fill="none" xmlns="http://www.w3.org/2000/svg">
<path d="M0 5.88096C0 2.63304 2.63304 0 5.88096 0H19.8547C23.1028 0 25.7358 2.63304 25.7358 5.88096V19.8547C25.7358 23.1028 23.1028 25.7358 19.8547 25.7358H5.88096C2.63304 25.7358 0 23.1028 0 19.8547V5.88096Z" fill="#B4B4B4"/>
<path d="M6.8361 18.8997C6.8361 17.2341 8.18638 15.8838 9.85203 15.8838H12.8678V18.8997C12.8678 20.5654 11.5177 21.9156 9.85203 21.9156C8.18638 21.9156 6.8361 20.5654 6.8361 18.8997Z" fill="white"/>
<path d="M12.8678 3.82017V9.8519H15.8838C17.5494 9.8519 18.8997 8.50176 18.8997 6.83611C18.8997 5.17046 17.5494 3.82017 15.8838 3.82017H12.8678Z" fill="white"/>
<path d="M15.8587 15.8837C17.5244 15.8837 18.8746 14.5335 18.8746 12.8678C18.8746 11.2022 17.5244 9.85193 15.8587 9.85193C14.1931 9.85193 12.8428 11.2022 12.8428 12.8678C12.8428 14.5335 14.1931 15.8837 15.8587 15.8837Z" fill="white"/>
<path d="M6.8361 6.83611C6.8361 8.50176 8.18638 9.85205 9.85203 9.85205H12.8678L12.8678 3.82017H9.85203C8.18638 3.82017 6.8361 5.17046 6.8361 6.83611Z" fill="white"/>
<path d="M6.8361 12.8678C6.8361 14.5335 8.18638 15.8838 9.85203 15.8838H12.8678V9.85205H9.85203C8.18638 9.85205 6.8361 11.2022 6.8361 12.8678Z" fill="white"/>
<path d="M86.4557 21.7418C85.6629 21.7418 84.9508 21.5885 84.3198 21.2819C83.7048 20.9753 83.2113 20.5638 82.839 20.0474C82.4831 19.5149 82.3051 18.9016 82.3051 18.2077C82.3051 17.3041 82.5964 16.5698 83.1789 16.0049C83.7615 15.4401 84.5948 15.0529 85.679 14.8431L88.519 14.2621C89.0853 14.1492 89.4738 13.9716 89.6841 13.7295C89.8945 13.4875 89.9997 13.1325 89.9997 12.6645L90.291 15.4966L86.2131 16.3681C85.6629 16.4809 85.234 16.6827 84.9266 16.9731C84.6353 17.2637 84.4897 17.6671 84.4897 18.1835C84.4897 18.7161 84.6919 19.1437 85.0965 19.4665C85.5171 19.7892 86.0836 19.9506 86.7956 19.9506C87.3782 19.9506 87.9121 19.8215 88.3976 19.5633C88.8993 19.3051 89.2876 18.95 89.5628 18.4982C89.854 18.0302 89.9997 17.4977 89.9997 16.9006V12.6645C89.9997 12.0835 89.7893 11.6317 89.3686 11.3089C88.9641 10.9701 88.4058 10.8006 87.6937 10.8006C86.7875 10.8006 86.0917 11.0265 85.6063 11.4784C85.1207 11.9303 84.8376 12.5676 84.7567 13.3907L82.6206 13.1003C82.7015 12.2449 82.9604 11.5106 83.3973 10.8975C83.8342 10.2681 84.4168 9.78394 85.145 9.44511C85.8733 9.10613 86.739 8.93679 87.7422 8.93679C89.1662 8.93679 90.2586 9.29981 91.0191 10.026C91.7797 10.7522 92.16 11.6882 92.16 12.8339V21.3787H90.0482V19.8053C89.8379 20.3378 89.409 20.7978 88.7617 21.1851C88.1306 21.5562 87.3619 21.7418 86.4557 21.7418Z" fill="#B4B4B4"/>
<path d="M65.0942 21.3787V9.29981H67.2059V10.6554C67.3677 10.1874 67.7238 9.78394 68.274 9.44511C68.8241 9.10613 69.4633 8.93679 70.1915 8.93679C70.9036 8.93679 71.5589 9.09 72.1577 9.39658C72.7564 9.7033 73.1448 10.1632 73.3228 10.7764C73.5332 10.2116 73.9215 9.76781 74.4879 9.44511C75.0705 9.10613 75.7178 8.93679 76.4297 8.93679C77.6596 8.93679 78.5982 9.29175 79.2455 10.0018C79.8928 10.7119 80.2163 11.7446 80.2163 13.1003V21.3787H78.0561V13.3907C78.0561 12.5837 77.8781 11.9786 77.5221 11.5752C77.1823 11.1557 76.6806 10.9459 76.0172 10.9459C75.2889 10.9459 74.7226 11.2041 74.318 11.7205C73.9296 12.2207 73.7355 12.955 73.7355 13.9232V21.3787H71.5751V13.3907C71.5751 12.5837 71.3971 11.9786 71.0411 11.5752C70.7013 11.1557 70.1996 10.9459 69.5362 10.9459C68.808 10.9459 68.2416 11.2041 67.837 11.7205C67.4486 12.2207 67.2545 12.955 67.2545 13.9232V21.3787H65.0942Z" fill="#B4B4B4"/>
<path d="M56.8338 25.7358C55.3288 25.7358 54.107 25.3889 53.1684 24.695C52.2298 24.0011 51.6312 23.0328 51.3723 21.7902L53.484 21.3303C53.662 22.121 54.0423 22.7343 54.6248 23.17C55.2074 23.6219 55.9437 23.8478 56.8338 23.8478C57.9017 23.8478 58.7028 23.5734 59.2367 23.0247C59.7869 22.4922 60.0621 21.6935 60.0621 20.6283V18.7161C59.8193 19.3131 59.3662 19.7973 58.7028 20.1684C58.0555 20.5396 57.3273 20.7252 56.5181 20.7252C55.4501 20.7252 54.5116 20.4831 53.7025 19.999C52.8934 19.4988 52.2622 18.8048 51.8092 17.9172C51.356 17.0297 51.1295 16.0049 51.1295 14.8431C51.1295 13.665 51.356 12.6323 51.8092 11.7446C52.2622 10.857 52.8853 10.1713 53.6782 9.68717C54.4873 9.18692 55.4339 8.93679 56.5181 8.93679C57.3273 8.93679 58.0635 9.12226 58.7271 9.49349C59.4066 9.84845 59.8679 10.2923 60.1106 10.8248V9.29981H62.2224V20.6283C62.2224 21.6935 62.012 22.6051 61.5912 23.3637C61.1705 24.1383 60.5556 24.7273 59.7465 25.1307C58.9536 25.5341 57.9826 25.7358 56.8338 25.7358ZM56.7851 18.8129C57.8209 18.8129 58.6462 18.4497 59.261 17.7235C59.8922 16.9973 60.2077 16.0373 60.2077 14.8431C60.2077 13.6328 59.8922 12.6645 59.261 11.9383C58.6299 11.2121 57.8046 10.849 56.7851 10.849C55.7495 10.849 54.9161 11.2121 54.285 11.9383C53.6701 12.6645 53.3626 13.6328 53.3626 14.8431C53.3626 16.0373 53.6782 16.9973 54.3093 17.7235C54.9405 18.4497 55.7657 18.8129 56.7851 18.8129Z" fill="#B4B4B4"/>
<path d="M46.7698 21.3646V9.2998H48.9302V21.3787L46.7698 21.3646ZM46.7456 7.75065V4.31337H48.9544V7.75065H46.7456Z" fill="#B4B4B4"/>
<path d="M34.3623 21.3787V4.31337H36.644V21.3787H34.3623ZM34.8235 14.1653V12.1077H44.1202V14.1653H34.8235ZM34.8235 6.39504V4.31337H45.0183V6.39504H34.8235Z" fill="#B4B4B4"/>
</svg>
