<?xml version="1.0" encoding="UTF-8"?>
<svg id="Layer_2" data-name="Layer 2" xmlns="http://www.w3.org/2000/svg" viewBox="0 0 120 28.91" fill="#fff">
  <g id="Layer_1-2" data-name="Layer 1">
    <path d="M6.75,28.91c-2.53,0-5.01-.87-6.75-2.2v-5.13c1.41,4.48,3.9,6.05,7.42,6.05,2.82,0,6.09-1.78,6.09-5.1,0-4.22-3.31-5.97-6.67-7.66C3.48,13.17.12,11.4.12,7.16S3.44.04,8,.04c2.15,0,4.68.87,5.84,1.87v4.19c-.33-.91-1.7-4.84-6.38-4.84-3.32,0-5.76,2.31-5.76,5.12,0,3.35,2.86,4.93,5.96,6.54,3.69,1.91,7.62,3.9,7.62,8.65,0,4.02-2.65,7.33-8.53,7.33h0Z"/>
    <path d="M34.88,1.87h-5.39v22.95c0,3.02,1.45,3.4,1.82,3.44h-5.75c.29-.04,1.82-.33,1.82-3.44V1.87h-5.39c-3.23,0-3.77,1-4.52,3.14l.33-4.35h21.29l.29,4.35c-.7-2.15-1.32-3.14-4.52-3.14h0Z"/>
    <path d="M54.68,28.87c-7.74,0-12.8-5.92-12.8-14.16S47.26,0,55.38,0s12.8,5.92,12.8,14.13-5.3,14.75-13.51,14.75h0ZM54.6,1.29c-6.54,0-10.61,5.18-10.61,12.22,0,8.04,4.52,14.08,11.52,14.08,6.51,0,10.61-5.3,10.61-12.55,0-7.91-4.35-13.75-11.52-13.75Z"/>
    <path d="M90.1.67h5.05c-.25.04-1.74.38-3.81,3.85l-7.21,12.14v8.16c0,3.02,1.45,3.4,1.82,3.44h-5.75c.29-.04,1.78-.33,1.78-3.44v-8.16l-7.29-12.26c-1.94-3.23-3.4-3.69-3.73-3.73h5.96c-.12.04-.83.25-.83,1.16,0,.53.38,1.32,1.2,2.69l6.34,10.61,6.09-10.32c.91-1.53,1.32-2.36,1.32-2.94,0-.95-.74-1.16-.95-1.2h0Z"/>
    <path d="M110.72,28.91c-9.11,0-13.34-6.88-13.34-13.92,0-7.42,4.68-15,14.37-15,3.19,0,5.67.83,7.54,1.82v3.93c-.67-1.03-2.94-4.52-8.5-4.52-7.33,0-11.11,6.42-11.11,12.88s3.9,13.38,11.68,13.38c3.19,0,6.21-1.7,8.62-4.35v1.66c-2.28,2.52-5.18,4.1-9.28,4.1h0Z"/>
  </g>
</svg>